# xmcd CD database file
#
# Track frame offsets:
#	150
#	18056
#	41466
#	56689
#	69435
#	88381
#	108580
#	127262
#	140615
#	157250
#	173973
#
# Disc length: 2856 seconds
#
# Revision: 0
# Processed by: cddbd v1.5.2PL0 Copyright (c) Steve Scherf et al.
# Submitted via: CDex 1.51
#
DISCID=a00b260b
DTITLE=Petra Magoni and Ferruccio Spinetti - Musica Nuda 2 CD2
DYEAR=2006
DGENRE=Jazz
TTITLE0=Why Judy why
TTITLE1=Some other time
TTITLE2=I almost had a weakness
TTITLE3=Modena park
TTITLE4=Take a bow
TTITLE5=Anima animale
TTITLE6=Non arrossire
TTITLE7=Pensieri di niente
TTITLE8=Anninnia
TTITLE9=Amore arancione
TTITLE10=My favourite things
EXTD=YEAR: 2006
EXTT0=
EXTT1=
EXTT2=
EXTT3=
EXTT4=
EXTT5=
EXTT6=
EXTT7=
EXTT8=
EXTT9=
EXTT10=
PLAYORDER=
